<?xml version="1.0" standalone="no"?>
<!DOCTYPE svg PUBLIC "-//W3C//DTD SVG 20010904//EN"
 "http://www.w3.org/TR/2001/REC-SVG-20010904/DTD/svg10.dtd">
<svg version="1.0" xmlns="http://www.w3.org/2000/svg"
 width="2400.000000pt" height="2400.000000pt" viewBox="0 0 2400.000000 2400.000000"
 preserveAspectRatio="xMidYMid meet">
<metadata>
Created by potrace 1.11, written by Peter Selinger 2001-2013
</metadata>
<g transform="translate(0.000000,2400.000000) scale(0.100000,-0.100000)"
fill="#000000" stroke="none">
<path d="M14960 22653 c-307 -23 -560 -171 -686 -403 -25 -45 -309 -524 -339
-570 -12 -19 -68 -114 -125 -210 -56 -96 -112 -191 -124 -210 -12 -19 -26 -42
-29 -50 -4 -8 -16 -28 -27 -45 -11 -16 -31 -50 -45 -75 -14 -25 -35 -61 -48
-81 -12 -20 -49 -82 -82 -138 -33 -57 -68 -115 -77 -129 -9 -15 -23 -38 -31
-52 -7 -14 -114 -194 -237 -400 -123 -206 -229 -384 -235 -395 -5 -11 -18 -31
-26 -45 -19 -29 -161 -268 -191 -320 -11 -19 -82 -139 -158 -265 -76 -127
-147 -246 -158 -265 -11 -19 -88 -149 -171 -289 -83 -139 -151 -255 -151 -258
0 -2 -5 -9 -10 -16 -6 -7 -115 -187 -242 -402 -273 -461 -517 -872 -843 -1420
-441 -743 -588 -989 -698 -1175 -60 -102 -120 -201 -132 -220 -66 -102 -179
-308 -196 -358 -63 -182 -36 -379 74 -542 113 -166 323 -289 542 -317 28 -3
683 -6 1458 -6 820 0 1407 -4 1407 -9 0 -5 -587 -888 -1303 -1961 -2413 -3613
-2884 -4322 -2906 -4376 -81 -195 -51 -431 76 -600 135 -179 354 -287 598
-295 215 -8 424 64 585 201 21 18 174 145 255 211 11 10 54 44 95 77 41 33 77
62 80 65 5 6 288 239 394 324 34 27 63 52 66 55 3 4 25 22 50 41 25 19 47 37
50 40 3 3 26 22 52 43 26 21 53 43 60 50 7 7 47 39 88 72 41 33 84 68 95 77
11 9 112 92 226 185 113 93 225 185 250 205 155 128 544 447 592 486 32 26 64
52 70 57 15 13 329 271 371 305 17 14 121 99 232 190 110 91 220 181 244 200
50 40 173 142 210 173 14 12 73 60 130 107 58 46 107 87 110 90 3 3 37 31 76
62 39 31 77 63 85 70 8 7 34 29 59 48 25 19 52 41 60 49 8 7 57 48 109 90 53
42 109 88 126 102 30 26 281 233 855 702 162 133 297 244 300 247 3 3 34 29
70 58 36 29 85 70 109 90 25 20 72 59 105 86 71 57 144 117 160 131 6 6 58 48
116 95 58 46 107 87 110 90 3 3 28 24 55 45 28 22 52 42 55 46 3 3 39 32 80
64 41 33 77 62 80 66 3 3 79 66 170 140 725 594 857 703 875 718 11 9 144 118
295 242 763 625 895 733 900 739 3 3 25 21 50 40 25 19 47 37 50 40 4 4 847
696 1020 837 54 44 169 139 190 157 14 12 112 93 219 180 106 87 203 166 215
176 11 10 138 114 281 231 143 117 274 224 290 238 17 14 51 42 75 61 24 19
63 51 86 70 23 19 50 42 60 50 17 14 158 129 209 172 11 9 79 64 150 123 524
430 516 423 582 510 102 135 140 344 93 512 -55 198 -229 415 -402 500 -46 23
-101 47 -123 54 -32 11 -387 15 -1887 19 l-1847 5 36 40 c19 22 77 85 129 141
51 55 102 110 111 121 15 17 110 120 266 287 16 17 66 71 110 120 113 123 132
144 186 201 35 38 299 325 396 431 5 6 60 64 120 130 61 65 141 152 179 194
39 41 77 82 85 91 9 9 34 36 56 60 61 68 263 288 321 349 28 30 64 69 79 85
15 17 69 75 119 130 51 55 105 114 120 130 15 17 49 53 74 80 26 28 101 109
167 180 65 72 142 155 170 185 46 50 87 94 235 254 25 27 73 79 106 115 34 36
83 90 110 120 27 29 68 74 92 100 58 61 116 147 145 212 21 49 29 73 44 134 6
27 5 184 -1 214 -25 112 -59 185 -130 275 -122 155 -313 256 -527 280 -54 6
-920 11 -4329 22 -976 3 -1777 6 -1780 7 -3 2 -21 1 -40 0z m3807 -1246 c398
-1 723 -4 723 -7 0 -7 -27 -37 -134 -154 -49 -53 -98 -106 -108 -119 -11 -12
-34 -38 -52 -57 -17 -19 -81 -89 -141 -155 -60 -66 -126 -138 -146 -160 -21
-22 -46 -49 -56 -61 -10 -12 -58 -65 -108 -119 -115 -126 -123 -135 -208 -229
-40 -44 -95 -105 -123 -135 -92 -101 -105 -115 -174 -191 -37 -41 -80 -88 -95
-105 -15 -16 -50 -55 -79 -85 -28 -31 -73 -81 -100 -110 -27 -30 -86 -95 -132
-145 -45 -49 -91 -100 -101 -111 -10 -12 -61 -68 -113 -125 -180 -196 -215
-235 -301 -329 -48 -52 -106 -117 -130 -144 -24 -27 -57 -63 -74 -81 -16 -17
-48 -51 -70 -76 -33 -37 -123 -136 -237 -260 -12 -14 -59 -65 -103 -114 -44
-48 -89 -98 -100 -109 -11 -12 -58 -64 -105 -116 -47 -52 -94 -104 -105 -116
-11 -11 -42 -45 -69 -75 -27 -30 -90 -99 -140 -153 -128 -139 -174 -201 -211
-281 -59 -128 -72 -253 -41 -388 44 -187 163 -312 341 -356 121 -30 56 -29
1958 -30 l1679 -1 -34 -27 c-18 -15 -35 -30 -38 -33 -3 -3 -32 -28 -65 -55
-33 -27 -92 -77 -131 -110 -39 -33 -82 -69 -95 -80 -13 -11 -109 -92 -214
-180 -104 -88 -201 -169 -214 -180 -13 -11 -45 -38 -71 -60 -25 -22 -68 -58
-94 -80 -27 -22 -54 -44 -60 -50 -6 -5 -67 -57 -136 -115 -69 -57 -130 -109
-136 -115 -7 -5 -22 -19 -35 -30 -156 -129 -442 -370 -524 -440 -27 -24 -153
-130 -280 -236 -239 -200 -402 -337 -421 -354 -6 -5 -33 -28 -60 -50 -70 -58
-188 -159 -194 -165 -3 -3 -59 -50 -125 -105 -66 -54 -122 -102 -125 -105 -3
-3 -43 -37 -90 -75 -47 -38 -87 -72 -90 -75 -5 -7 -424 -360 -649 -548 -127
-106 -204 -171 -255 -215 -11 -11 -38 -33 -60 -50 -21 -18 -43 -37 -50 -42 -6
-6 -67 -57 -136 -115 -69 -57 -127 -107 -130 -110 -3 -3 -72 -62 -155 -130
-82 -69 -152 -127 -155 -130 -3 -3 -77 -66 -165 -140 -88 -73 -200 -168 -250
-210 -49 -42 -175 -148 -280 -236 -104 -88 -224 -189 -265 -223 -41 -34 -86
-72 -100 -84 -14 -12 -52 -44 -85 -72 -33 -27 -69 -57 -80 -67 -147 -124 -382
-322 -420 -353 -26 -22 -53 -45 -59 -50 -33 -31 -266 -225 -270 -225 -2 0 22
39 55 88 82 121 259 385 493 732 110 162 292 432 405 600 113 168 283 420 377
560 95 140 265 392 378 560 113 168 280 415 371 550 184 271 224 342 250 445
58 228 -35 489 -214 604 -88 57 -223 96 -368 107 -48 4 -741 7 -1540 7 -1319
0 -1451 2 -1445 16 3 9 22 43 42 76 34 54 125 210 266 453 28 48 144 247 259
442 271 461 302 515 339 578 17 30 36 61 41 70 6 9 26 44 45 77 19 33 40 68
45 77 6 9 28 47 50 85 22 37 44 75 50 84 5 9 18 30 27 46 9 16 175 299 368
629 614 1046 764 1302 816 1391 28 49 150 257 271 463 121 206 229 390 239
407 11 18 183 314 384 658 l365 624 1280 -4 c704 -3 1605 -6 2002 -8z"/>
<path d="M6429 21466 c-2 -2 -49 -7 -104 -10 -103 -7 -151 -11 -220 -20 -22
-3 -62 -8 -90 -11 -27 -3 -57 -8 -65 -10 -8 -2 -35 -7 -60 -10 -25 -4 -76 -13
-115 -22 -38 -8 -81 -17 -95 -19 -152 -30 -417 -109 -615 -184 -433 -164 -804
-368 -1216 -667 -66 -48 -216 -166 -253 -198 -6 -5 -40 -35 -76 -65 -142 -121
-429 -400 -560 -545 -277 -306 -582 -716 -807 -1085 -168 -277 -349 -601 -454
-818 -68 -140 -189 -407 -189 -417 0 -3 -9 -24 -20 -48 -10 -23 -35 -87 -55
-142 -20 -55 -39 -107 -42 -115 -3 -8 -7 -19 -9 -25 -2 -5 -15 -41 -29 -80
-30 -84 -127 -404 -149 -495 -29 -121 -74 -325 -85 -385 -6 -33 -13 -71 -16
-85 -9 -48 -44 -286 -50 -345 -3 -33 -8 -80 -11 -105 -25 -240 -25 -754 1
-965 3 -22 10 -80 16 -130 23 -196 70 -432 124 -625 123 -444 283 -809 540
-1229 20 -32 185 -277 226 -336 111 -158 337 -437 492 -610 267 -296 762 -758
1056 -984 352 -271 638 -470 991 -688 137 -85 172 -105 288 -169 26 -15 52
-30 57 -34 37 -27 520 -274 654 -334 58 -25 108 -43 111 -39 6 7 647 1116 677
1173 8 14 23 39 33 55 10 17 26 43 34 58 36 67 630 1095 647 1119 11 15 19 33
19 41 0 8 -56 41 -127 76 -110 54 -248 127 -383 204 -19 11 -55 31 -79 44
-162 88 -685 417 -721 453 -3 3 -12 10 -21 15 -78 48 -502 366 -539 405 -3 3
-27 23 -54 45 -27 21 -60 48 -72 60 -12 11 -61 56 -109 100 -439 400 -777 838
-882 1140 -49 140 -76 266 -92 419 -7 76 -6 370 3 431 2 17 7 55 11 85 17 138
72 387 116 530 11 36 22 72 24 80 25 109 191 518 306 755 76 158 197 362 271
460 5 6 41 56 81 111 168 236 321 419 502 599 271 272 469 419 752 559 121 60
185 83 329 120 152 39 206 46 384 46 130 0 159 -2 300 -21 122 -15 174 -23
234 -35 11 -2 37 -7 56 -10 54 -9 348 -82 415 -103 124 -39 210 -65 220 -67
25 -7 290 -106 380 -142 274 -110 734 -327 945 -447 42 -24 107 -60 145 -80
132 -71 428 -252 583 -356 40 -27 75 -49 78 -49 3 0 14 -9 26 -20 12 -11 24
-20 27 -20 3 0 63 100 134 223 70 122 181 314 247 427 65 113 125 216 133 230
39 70 137 240 160 277 15 24 27 45 27 47 0 3 37 69 83 148 46 79 130 224 187
323 56 99 111 192 121 207 11 15 19 29 19 31 0 2 39 71 86 153 96 165 99 170
174 302 51 90 52 93 34 110 -76 71 -743 502 -775 502 -5 0 -9 4 -9 9 0 5 -8
11 -17 14 -10 4 -36 17 -58 29 -298 171 -577 311 -965 483 -371 165 -841 334
-1210 435 -106 30 -339 89 -365 93 -16 3 -64 13 -105 22 -105 23 -109 24 -154
31 -22 3 -44 7 -47 10 -4 2 -24 6 -45 9 -22 4 -91 15 -154 25 -103 16 -138 22
-245 35 -16 2 -57 7 -90 10 -33 3 -78 8 -100 10 -121 15 -744 32 -756 21z"/>
<path d="M20585 11881 c-8 -7 -113 -69 -229 -135 -11 -6 -25 -15 -30 -19 -9
-7 -252 -147 -894 -516 -73 -42 -147 -84 -165 -95 -91 -52 -324 -186 -407
-234 -52 -29 -99 -57 -105 -61 -5 -5 -35 -22 -65 -38 -30 -17 -95 -54 -145
-83 -114 -67 -156 -91 -288 -165 -59 -33 -105 -65 -103 -70 2 -6 46 -76 98
-155 240 -368 531 -893 690 -1245 71 -156 90 -201 130 -295 22 -52 46 -108 53
-125 31 -71 143 -394 190 -550 51 -168 106 -400 131 -555 2 -14 6 -34 9 -45 2
-11 7 -47 11 -79 3 -33 7 -68 10 -79 17 -90 24 -378 11 -476 -16 -115 -63
-306 -97 -386 -69 -164 -160 -328 -254 -460 -43 -61 -120 -160 -136 -175 -3
-3 -22 -26 -43 -53 -43 -53 -233 -246 -317 -322 -115 -104 -137 -122 -220
-188 -47 -38 -92 -74 -100 -80 -105 -85 -520 -364 -635 -428 -127 -70 -353
-171 -551 -247 -125 -48 -391 -137 -437 -146 -12 -3 -47 -11 -77 -20 -30 -8
-80 -19 -110 -25 -30 -6 -66 -13 -80 -16 -194 -42 -501 -62 -686 -44 -223 23
-419 76 -586 160 -124 62 -373 234 -504 348 -225 196 -413 383 -579 576 -33
38 -68 79 -78 90 -11 11 -40 47 -65 80 -25 33 -49 62 -52 65 -4 3 -65 84 -137
180 -106 143 -220 307 -417 605 -50 76 -196 324 -196 334 0 6 -4 11 -10 11 -5
0 -10 4 -10 9 0 6 -16 37 -35 70 -64 109 -241 449 -291 559 -1 2 -30 -14 -65
-36 -35 -21 -89 -52 -119 -69 -30 -17 -143 -81 -250 -143 -107 -62 -280 -163
-385 -223 -104 -60 -290 -167 -412 -238 -122 -71 -226 -129 -232 -129 -5 0
-11 -4 -13 -8 -2 -4 -23 -19 -48 -33 -63 -36 -89 -50 -420 -241 -487 -280
-520 -300 -520 -304 0 -8 43 -99 146 -309 106 -217 163 -325 266 -505 33 -58
72 -125 86 -150 124 -221 464 -731 629 -945 13 -16 27 -34 31 -40 40 -55 197
-253 237 -300 28 -33 62 -73 76 -89 13 -16 29 -34 34 -40 6 -6 37 -43 70 -81
157 -184 467 -501 665 -680 274 -249 695 -568 965 -732 353 -214 625 -343 984
-464 79 -27 150 -49 158 -49 7 0 21 -4 31 -10 20 -11 278 -74 367 -90 33 -5
71 -12 85 -15 56 -11 230 -35 295 -41 39 -3 81 -7 94 -9 163 -26 675 -26 916
0 22 2 67 7 100 9 63 6 103 11 195 26 30 5 78 12 105 15 28 4 79 13 115 21 36
7 76 16 90 18 142 25 482 111 650 164 520 167 961 361 1423 625 233 134 188
107 337 202 471 303 815 557 1070 790 25 23 74 68 110 101 36 32 119 113 185
179 502 502 875 1037 1148 1645 109 243 220 588 282 880 28 128 49 257 65 390
6 52 13 109 15 125 23 171 23 699 0 890 -3 22 -7 63 -10 90 -11 131 -21 226
-30 275 -2 14 -7 45 -10 70 -9 64 -14 98 -25 155 -5 28 -12 73 -16 100 -3 28
-8 53 -10 56 -2 4 -32 144 -50 234 -30 157 -163 623 -248 870 -93 272 -206
558 -315 800 -15 33 -43 94 -62 135 -39 87 -240 487 -289 575 -18 33 -51 92
-73 130 -23 39 -48 84 -56 100 -9 17 -45 79 -81 138 -36 60 -72 121 -82 136
-94 160 -364 551 -384 558 -5 2 -14 -1 -19 -6z"/>
</g>
</svg>
